<?xml version="1.0" encoding="utf-8"?>
<!-- Generator: Adobe Illustrator 26.0.3, SVG Export Plug-In . SVG Version: 6.00 Build 0)  -->
<svg version="1.0" id="katman_1" xmlns="http://www.w3.org/2000/svg" xmlns:xlink="http://www.w3.org/1999/xlink" x="0px" y="0px"
	 viewBox="0 0 600 450" style="enable-background:new 0 0 600 450;" xml:space="preserve">
<style type="text/css">
	.st0{fill:#010202;}
</style>
<g id="black---derspiegel">
	<path id="Combined-Shape" class="st0" d="M197,193.3c3.7,0,6.6,3.3,6.6,6.9v17.2c0,3.7-3,6.9-6.8,6.9c3.7,0,6.8,3,6.8,6.9v15.7h4.7
		v10.5h-22.4v-10.6h5.2v-17.5H177v17.5h4.9v10.5h-22.6v-10.5h5.4v-42.9h-5.5v-10.6H197z M97.8,193.3c3.7,0,7.1,3.2,7.1,6.9v50.3
		c-0.1,3.7-3,6.8-6.8,6.8H61.3v-10.5h5.2v-42.9h-5.2v-10.6H97.8z M263.3,193.3c3.7,0,6.8,2.9,6.8,6.7v12.8h-12.7v-8.9h-13.7v14.6
		h26.5v31.9c-0.2,3.8-3.2,6.9-7,6.9H238c-3.7,0-6.8-3.2-6.8-6.9v-15.6h12.3v12h13.8v-17.5h-26v-29.1c0-3.7,3-6.9,6.8-6.9H263.3z
		 M313.2,193.3c3.7,0,6.8,3,6.8,6.9v22.1c-0.2,3.7-3.2,6.9-7,6.9h-19.9v17.5h4.7v10.5h-22.2v-10.5h4.9v-42.9h-4.9v-10.6H313.2z
		 M432.8,193.5c3.7,0,6.8,3,6.8,6.9v12.6h-12.8V204h-13.7v42.7h14.2v-17.5h-10.3v-10.6h22.6v38.6h-31.9v0.1c-3.7,0-6.9-3-6.9-6.7
		v-50.3c0-3.7,3-6.9,6.8-6.9H432.8z M346.3,193.3v10.6h-4.7v42.8h4.7v10.5h-21.9v-10.4h4.8v-42.9h-4.8v-10.6H346.3z M154,193.3v19.5
		h-12.2v-8.9h-14.5v14.6h19.2v10.7h-19.2v17.5h14.5v-12H154v22.5h-43.5v-10.4h4.6v-42.9h-4.6v-10.6H154z M395.1,193.3v19.5h-12.2
		v-8.9h-14.5v14.6h19.2v10.7h-19.2v17.5h14.5v-12h12.2v22.5h-43.5v-10.4h4.6v-42.9h-4.6v-10.6H395.1z M488.8,193.3v19.5h-12.2v-8.9
		h-14.5v14.6h19.2v10.7h-19.2v17.5h14.5v-12h12.2v22.5h-43.7v-10.4h4.6v-42.9h-4.6v-10.6H488.8z M517,193.3v10.6h-5.3v42.8h14.2v-12
		h12.2v22.5h-43.8v-10.4h4.9v-42.9h-4.8v-10.6H517z M92.4,203.9H78.7v42.8h13.7V203.9z M191,203.9h-14.1v14.6H191V203.9z
		 M307.5,203.9h-14.2v14.6h14.2V203.9z"/>
</g>
</svg>
